<?xml version="1.0" standalone="no"?>
<!DOCTYPE svg PUBLIC "-//W3C//DTD SVG 20010904//EN"
 "http://www.w3.org/TR/2001/REC-SVG-20010904/DTD/svg10.dtd">
<svg version="1.0" xmlns="http://www.w3.org/2000/svg"
 width="256.000000pt" height="256.000000pt" viewBox="0 0 256.000000 256.000000"
 preserveAspectRatio="xMidYMid meet">
<metadata>
Created by potrace 1.14, written by Peter Selinger 2001-2017
</metadata>
<g transform="translate(0.000000,256.000000) scale(0.100000,-0.100000)"
fill="#000000" stroke="none">
<path d="M1211 2128 c-75 -11 -166 -58 -231 -118 -76 -72 -118 -91 -186 -89
-65 3 -106 22 -166 80 -85 82 -190 129 -286 129 -76 0 -115 -28 -127 -92 -11
-53 48 -117 107 -118 42 -1 116 -35 155 -71 106 -99 204 -141 326 -141 116 1
212 41 298 126 72 70 117 90 194 84 69 -6 94 -19 173 -94 79 -75 180 -115 289
-115 122 1 206 35 305 125 59 54 114 81 172 85 100 5 147 118 75 184 -35 32
-91 36 -184 11 -75 -19 -130 -51 -192 -110 -60 -58 -114 -83 -176 -84 -61 0
-102 19 -164 76 -125 115 -237 153 -382 132z"/>
<path d="M1217 1488 c-79 -10 -171 -56 -237 -119 -67 -63 -120 -88 -183 -89
-63 0 -104 20 -175 86 -78 74 -166 114 -262 121 -71 5 -77 4 -106 -21 -36 -29
-48 -73 -33 -113 19 -49 45 -66 122 -77 57 -9 97 -30 152 -81 59 -55 111 -87
180 -110 53 -18 158 -22 215 -10 64 14 155 65 217 124 121 112 227 110 353 -8
175 -164 424 -163 600 0 61 57 115 84 174 88 100 5 147 118 75 184 -35 32 -91
36 -184 11 -74 -19 -125 -48 -190 -109 -71 -66 -114 -86 -181 -84 -61 3 -110
24 -153 67 -118 117 -237 160 -384 140z"/>
<path d="M1211 848 c-75 -11 -166 -58 -231 -119 -71 -66 -117 -89 -177 -89
-60 0 -119 27 -169 75 -95 91 -192 135 -294 135 -51 0 -64 -4 -89 -27 -54 -50
-45 -135 17 -167 15 -7 51 -17 80 -21 54 -7 93 -31 172 -104 67 -61 220 -116
297 -105 10 2 38 6 63 9 67 10 158 58 216 114 77 74 124 95 200 88 67 -5 93
-19 165 -88 84 -80 184 -121 299 -121 119 1 209 38 305 128 56 52 111 79 169
83 100 5 147 118 75 184 -35 32 -91 36 -184 11 -75 -19 -130 -51 -192 -110
-60 -58 -114 -83 -176 -84 -61 0 -102 19 -164 76 -125 115 -237 153 -382 132z"/>
</g>
</svg>
